<svg id="图层_1" data-name="图层 1" xmlns="http://www.w3.org/2000/svg" viewBox="0 0 14.1 17.85"><defs><style>.cls-1{isolation:isolate;}.cls-2{fill:#fff;}</style></defs><g id="页面-1"><g id="编组-21"><g id="B备份-8" class="cls-1"><g class="cls-1"><path class="cls-2" d="M22.77,12.15a6,6,0,0,1,3.95,1.2,4.09,4.09,0,0,1,1.43,3.3,4.36,4.36,0,0,1-.8,2.6,4.76,4.76,0,0,1-2.18,1.43,4.46,4.46,0,0,1,2.73,1.45,4.25,4.25,0,0,1,1,2.9,4.41,4.41,0,0,1-1.85,3.89A7.74,7.74,0,0,1,22.72,30H14.8V12.15ZM16.85,20h5.42a4.61,4.61,0,0,0,2.85-.77,2.84,2.84,0,0,0,1-2.33,2.66,2.66,0,0,0-1-2.25,4.62,4.62,0,0,0-2.85-.72H16.85Zm0,8.33h5.7a5.67,5.67,0,0,0,3-.7A2.85,2.85,0,0,0,26.85,25a3,3,0,0,0-1.15-2.55,5.17,5.17,0,0,0-3.15-.8h-5.7Z" transform="translate(-14.8 -12.15)"/></g></g></g></g></svg>