<svg id="图层_1" data-name="图层 1" xmlns="http://www.w3.org/2000/svg" viewBox="0 0 16.1 18.54"><defs><style>.cls-1{isolation:isolate;}.cls-2{fill:#fff;}</style></defs><g id="页面-1"><g id="编组-22"><g id="C" class="cls-1"><g class="cls-1"><path class="cls-2" d="M25.5,13.38a6.28,6.28,0,0,1,2.4,4.25h-2a4.58,4.58,0,0,0-1.9-3,6,6,0,0,0-3.55-1,5.73,5.73,0,0,0-4.8,2.17,8.47,8.47,0,0,0-1.57,5.35,8.2,8.2,0,0,0,1.55,5.3,5.72,5.72,0,0,0,4.77,2.08,5.56,5.56,0,0,0,5.75-4.65h2a7.56,7.56,0,0,1-7.73,6.47,7.73,7.73,0,0,1-6.37-2.75,9.85,9.85,0,0,1-2-6.45,10,10,0,0,1,2-6.52,7.69,7.69,0,0,1,6.4-2.83A7.93,7.93,0,0,1,25.5,13.38Z" transform="translate(-12.05 -11.8)"/></g></g></g></g></svg>