<svg id="图层_1" data-name="图层 1" xmlns="http://www.w3.org/2000/svg" viewBox="0 0 14.8 17.85"><defs><style>.cls-1{isolation:isolate;}.cls-2{fill:#fff;}</style></defs><g id="页面-1"><g id="编组-23"><g id="D" class="cls-1"><g class="cls-1"><path class="cls-2" d="M20.2,12.15c2.82,0,4.95.8,6.4,2.45a9.55,9.55,0,0,1,2,6.48,9.25,9.25,0,0,1-2.15,6.47A8.37,8.37,0,0,1,20,30H13.8V12.15ZM15.85,28.23h3.8a7,7,0,0,0,5.25-1.85,7.62,7.62,0,0,0,1.67-5.3q0-3.6-1.55-5.33c-1.1-1.22-2.8-1.82-5.15-1.82h-4Z" transform="translate(-13.8 -12.15)"/></g></g></g></g></svg>