<svg id="图层_1" data-name="图层 1" xmlns="http://www.w3.org/2000/svg" viewBox="0 0 16.05 18.54"><defs><style>.cls-1{isolation:isolate;}.cls-2{fill:#fff;}</style></defs><g id="页面-1"><g id="编组-44"><g id="G" class="cls-1"><g class="cls-1"><path class="cls-2" d="M25.75,13.43a7,7,0,0,1,2.35,4.45H26.05a5.08,5.08,0,0,0-1.8-3.1,6,6,0,0,0-3.83-1.15,5.66,5.66,0,0,0-4.62,2,8.14,8.14,0,0,0-1.7,5.47,8,8,0,0,0,1.65,5.33A6.53,6.53,0,0,0,21,28.55a10.41,10.41,0,0,0,2.8-.4,8.64,8.64,0,0,0,2.25-1V22.6h-5.6V20.83h7.62v7.29A9.33,9.33,0,0,1,25,29.75a14,14,0,0,1-4.15.6,8.22,8.22,0,0,1-6.58-2.7,9.58,9.58,0,0,1-2.17-6.5A9.81,9.81,0,0,1,14.2,14.6a7.59,7.59,0,0,1,6.22-2.8A8.08,8.08,0,0,1,25.75,13.43Z" transform="translate(-12.05 -11.8)"/></g></g></g></g></svg>