<svg id="图层_1" data-name="图层 1" xmlns="http://www.w3.org/2000/svg" viewBox="0 0 17.07 20.02"><defs><style>.cls-1{isolation:isolate;}.cls-2{fill:#fff;}</style></defs><g id="页面-1"><g id="编组-34"><g id="Q" class="cls-1"><g class="cls-1"><path class="cls-2" d="M26.92,14.48a9.85,9.85,0,0,1,2.2,6.62,9.77,9.77,0,0,1-2.2,6.58.53.53,0,0,0-.12.15c.7.9,1.37,1.84,2.05,2.82L27.5,31.82c-.7-1-1.38-1.94-2.05-2.84a8.61,8.61,0,0,1-4.88,1.37,8,8,0,0,1-6.32-2.67,9.66,9.66,0,0,1-2.2-6.58,9.68,9.68,0,0,1,2.2-6.6,7.92,7.92,0,0,1,6.35-2.7A7.91,7.91,0,0,1,26.92,14.48ZM15.75,15.75A8.2,8.2,0,0,0,14.1,21.1a8.18,8.18,0,0,0,1.65,5.33,5.91,5.91,0,0,0,4.82,2.1,6.36,6.36,0,0,0,3.73-1.05q-1.5-1.92-3-3.5l1.22-1.18c1,1.1,2.05,2.25,3.05,3.48a8.38,8.38,0,0,0,1.5-5.18,8.32,8.32,0,0,0-1.67-5.42,5.89,5.89,0,0,0-4.8-2A6,6,0,0,0,15.75,15.75Z" transform="translate(-12.05 -11.8)"/></g></g></g></g></svg>