<svg id="图层_1" data-name="图层 1" xmlns="http://www.w3.org/2000/svg" viewBox="0 0 14.32 17.85"><defs><style>.cls-1{isolation:isolate;}.cls-2{fill:#fff;}</style></defs><g id="页面-1"><g id="编组-35"><g id="R" class="cls-1"><g class="cls-1"><path class="cls-2" d="M21.5,12.15a6.5,6.5,0,0,1,4.2,1.23,4.56,4.56,0,0,1,1.6,3.75,4.46,4.46,0,0,1-.83,2.65,4.12,4.12,0,0,1-2.42,1.55v.05a3.4,3.4,0,0,1,2.85,3.25l.27,2.75A4.8,4.8,0,0,0,28.12,30H25.9a4.92,4.92,0,0,1-.73-2.37L25,25.25A2.94,2.94,0,0,0,23.82,23a4.21,4.21,0,0,0-2.57-.65h-5.4V30h-2V12.15Zm-5.65,8.4h5.4a4.54,4.54,0,0,0,3-.92,3.13,3.13,0,0,0,.95-2.43,3.12,3.12,0,0,0-.92-2.45,4.69,4.69,0,0,0-3.05-.82h-5.4Z" transform="translate(-13.8 -12.15)"/></g></g></g></g></svg>