<svg id="图层_1" data-name="图层 1" xmlns="http://www.w3.org/2000/svg" viewBox="0 0 14.2 18.54"><defs><style>.cls-1{isolation:isolate;}.cls-2{fill:#fff;}</style></defs><g id="页面-1"><g id="编组-36"><g id="S" class="cls-1"><g class="cls-1"><path class="cls-2" d="M25.55,13.18a5.84,5.84,0,0,1,2.05,4.25h-2a4.49,4.49,0,0,0-1.5-2.88,5.2,5.2,0,0,0-3.37-1,6,6,0,0,0-3.1.65,2.46,2.46,0,0,0-1.28,2.28,2.43,2.43,0,0,0,1.53,2.17,20.66,20.66,0,0,0,3.27,1.13,24.15,24.15,0,0,1,4.65,1.72A4.21,4.21,0,0,1,28,25.33,4.35,4.35,0,0,1,26.12,29a8.67,8.67,0,0,1-5.05,1.32A8.08,8.08,0,0,1,16.12,29a6.35,6.35,0,0,1-2.32-4.9h2a5,5,0,0,0,1.63,3.43,5.72,5.72,0,0,0,3.62,1,6.78,6.78,0,0,0,3.55-.83A2.53,2.53,0,0,0,26,25.45a2.89,2.89,0,0,0-1.77-2.62,21.13,21.13,0,0,0-3.78-1.3,30.15,30.15,0,0,1-4.1-1.45,3.78,3.78,0,0,1-2.05-3.45,4.07,4.07,0,0,1,2-3.63,7.93,7.93,0,0,1,4.55-1.2A7.38,7.38,0,0,1,25.55,13.18Z" transform="translate(-13.8 -11.8)"/></g></g></g></g></svg>