<svg id="图层_1" data-name="图层 1" xmlns="http://www.w3.org/2000/svg" viewBox="0 0 14.25 18.2"><defs><style>.cls-1{isolation:isolate;}.cls-2{fill:#fff;}</style></defs><g id="页面-1"><g id="编组-38"><g id="U" class="cls-1"><g class="cls-1"><path class="cls-2" d="M15.85,12.15v11a5.8,5.8,0,0,0,1.17,4,5,5,0,0,0,3.9,1.4,5,5,0,0,0,3.9-1.4,5.9,5.9,0,0,0,1.18-4v-11h2.05v11a7.39,7.39,0,0,1-1.78,5.33,7.18,7.18,0,0,1-5.35,1.87A7.15,7.15,0,0,1,15.6,28.5a7.4,7.4,0,0,1-1.8-5.35v-11Z" transform="translate(-13.8 -12.15)"/></g></g></g></g></svg>